<svg width="44" height="32" viewBox="0 0 44 32" fill="none" xmlns="http://www.w3.org/2000/svg">
<path d="M5.66279 18.6371C5.29411 18.8101 5.13146 19.2456 5.29575 19.6178L6.97974 23.2328C7.06248 23.4128 7.21342 23.5529 7.39904 23.6221C7.48037 23.6516 7.56662 23.6668 7.65334 23.6668C7.76186 23.6678 7.86897 23.6446 7.96764 23.5998L20.691 17.657L19.5385 29.7065C19.5163 29.9437 19.6077 30.1769 19.7851 30.3353C20.3429 30.797 21.0381 31.06 21.7614 31.0837C21.9608 31.0834 22.1591 31.0584 22.3525 31.0091C23.3854 30.7396 24.1862 29.8192 24.7325 28.2472L29.7395 13.4211L39.656 8.79544C42.5749 7.43348 44.0791 4.67183 43.0689 2.51628C42.4957 1.38963 41.3976 0.62322 40.1425 0.472985C38.748 0.262516 37.3228 0.481892 36.0562 1.10205L24.6125 6.46809L12.3087 1.65565C10.7593 1.07205 9.5321 1.08705 8.67147 1.70838C7.94936 2.30088 7.5385 3.19151 7.55607 4.1255C7.56357 4.36246 7.68287 4.5816 7.87787 4.71707L16.1628 10.4124L11.4181 12.6577L3.462 10.6367C3.13598 10.5565 2.7966 10.7035 2.63137 10.996L0.648314 14.5658C0.545423 14.7549 0.529251 14.9795 0.604017 15.1815C0.678315 15.3838 0.836284 15.5438 1.03761 15.6212L6.92771 18.0538L5.66279 18.6371ZM9.09007 3.75144C9.13413 3.43503 9.29421 3.14698 9.53936 2.94307C9.96616 2.63604 10.7445 2.68104 11.7847 3.07011L22.7418 7.34372L17.7421 9.67881L9.09007 3.75144ZM2.35457 14.5585L3.65676 12.2459L11.3131 14.1467C11.4781 14.1884 11.6523 14.1727 11.8074 14.1022L36.6925 2.47901C37.6818 1.99104 38.796 1.81338 39.8882 1.96994C40.6542 2.04049 41.3364 2.48252 41.7145 3.15237C42.3426 4.4998 41.1079 6.46809 39.0196 7.44098L30.3979 11.4828L30.9219 9.9331C31.0544 9.53443 30.838 9.10365 30.4394 8.97146C30.0402 8.83927 29.6097 9.0556 29.4775 9.45427L23.3179 27.7829C22.9511 28.8236 22.4945 29.4449 21.9857 29.5792C21.6704 29.6399 21.3442 29.578 21.0725 29.4074L22.5695 13.6902C22.6086 13.2769 22.3056 12.9101 21.8919 12.871C21.4787 12.8314 21.1119 13.1349 21.0725 13.5481L20.8407 15.9505L7.9974 21.9378L6.94271 19.6925L9.0528 18.7049C9.32444 18.5851 9.49952 18.3165 9.49952 18.02C9.49952 17.7233 9.32444 17.4547 9.0528 17.3352L2.35457 14.5585Z" fill="url(#paint0_linear)"/>
<defs>
<linearGradient id="paint0_linear" x1="21.9702" y1="0.395263" x2="21.9702" y2="31.0837" gradientUnits="userSpaceOnUse">
<stop stop-color="#B427CB"/>
<stop offset="1" stop-color="#2762CB"/>
</linearGradient>
</defs>
</svg>
