<svg id="Capa_1" enable-background="new 0 0 512 512" height="512" viewBox="0 0 512 512" width="512" xmlns="http://www.w3.org/2000/svg"><g><path d="m495.493 465.94c-27.907-21.826-88.933-36.421-156.968-16.893-4.062 1.17-8.417 2.048-13.257 2.672-35.075-16.471-91.076-24.038-152.309-6.473-21.243 6.097-45.309 4.014-68.584 2.001-14.889-1.289-29.955-2.589-43.996-1.55 11.323-8.456 26.606-16.988 45.672-23.511 39.779-13.612 87.103-15.386 136.843-5.135 8.72 1.811 33.318 5.329 73.306-1.102 35.671-5.775 143.662-8.961 187.099-1.928 4.089.663 7.941-2.115 8.603-6.205.662-4.089-2.115-7.94-6.204-8.603-16.588-2.686-41.602-3.961-68.506-4.207v-20.804h14.187c14.72 0 26.69-11.99 26.69-26.72 0-14.72-11.97-26.69-26.69-26.69h-11.75l51.397-51.421c4.954-4.935 7.686-11.525 7.692-18.559.007-7.047-2.722-13.659-7.682-18.62-4.954-4.954-11.559-7.682-18.598-7.682-7.04 0-13.645 2.728-18.599 7.682l-88.597 88.599h-32.662c-4.14 0-7.5 3.36-7.5 7.5s3.36 7.5 7.5 7.5h35.771 53.178 29.851c6.45 0 11.69 5.24 11.69 11.69 0 6.46-5.24 11.72-11.69 11.72h-322.27c-6.47 0-11.72-5.26-11.72-11.72 0-6.45 5.25-11.69 11.72-11.69h168.86c4.14 0 7.5-3.36 7.5-7.5s-3.36-7.5-7.5-7.5h-27.29l18.47-167.55 68.03 7.51-1.47 13.27c-.455 4.072 2.569 7.819 6.63 8.28 4.066.461 7.826-2.573 8.28-6.63l1.47-13.28 76.45 8.43-1.47 13.26c-.45 4.12 2.51 7.83 6.63 8.28.28.03.56.05.83.05 3.78 0 7.02-2.84 7.45-6.67l2.3-20.73c.01-.19.01-1.73-.1-2.29-6.57-35.95-24.54-70.14-50.61-96.26-30.25-30.32-70.51-49.01-116.42-54.07-49.78-5.5-96.1 5.97-133.93 33.17-3.36 2.42-4.13 7.1-1.71 10.47 2.42 3.36 7.11 4.13 10.47 1.71 28.08-20.19 61.33-30.93 97.34-31.64-38.34 25.98-60.64 67.83-66.71 102.52l-83.21-9.16c7.18-14.39 16.69-28.06 27.85-39.98 2.83-3.02 2.68-7.77-.35-10.6-3.02-2.83-7.77-2.68-10.6.35-14.69 15.69-26.76 34.19-34.91 53.51-.31.69-.52 1.46-.6 2.21l-2.3 20.72c-.445 4.071 2.564 7.823 6.63 8.28 4.064.456 7.835-2.563 8.28-6.63l1.47-13.27 85.85 9.46-1.46 13.29c-.443 4.046 2.582 7.841 6.64 8.27 4.068.43 7.824-2.571 8.28-6.64l1.45-13.28 58.61 6.45-18.65 169.19h-126.48c-14.74 0-26.72 11.97-26.72 26.69 0 14.73 11.98 26.72 26.72 26.72h6.273v25.1c-11.847 2.063-23.277 4.957-34.188 8.69-42.855 14.663-63.473 36.519-70.208 45.01-13.122 6.537-23.869 18.14-30.592 38.041-.773 2.289-.396 4.811 1.012 6.773s3.677 3.127 6.093 3.127h496.971c4.037 0 7.35-3.195 7.495-7.229.343-9.472-5.354-19.077-16.473-27.773zm-31.045-223.138c2.12-2.121 4.958-3.289 7.991-3.289 3.032 0 5.87 1.168 7.99 3.289 2.124 2.124 3.292 4.964 3.289 7.999-.003 3.021-1.167 5.843-3.29 7.957l-62.007 62.037h-31.964zm-66.997 131.404h24.742v20.77c-8.245.037-16.55.161-24.742.361zm-132.651-.001h117.651v21.589c-28.437 1.041-54.007 2.979-68.64 5.347-23.138 3.721-40.534 3.942-52.333 3.179zm-76.064 0h60.974l-3.121 28.29c-.226-.045-.448-.089-.655-.132-19.481-4.015-38.639-6.263-57.198-6.764zm258.563-218.61-73.63-8.12c1.55-34.52-10.65-79.13-41.13-112.6 67.24 20.691 103.01 73.681 114.76 120.72zm-229.749-25.319c6.94-37.7 35.38-82.89 79.95-102.73 1.84.22 3.66.46 5.47.72 39.19 29.03 57.14 79.26 55.76 117.57zm-67.167 243.93h23.352v21.375c-7.92.197-15.711.727-23.352 1.584zm-131.643 111.741c14.481-28.166 42.321-27.39 84.343-23.754 24.634 2.131 50.106 4.335 74.014-2.526 32.445-9.308 65.911-11.836 96.786-7.315 25.406 3.721 48.061 12.182 62.157 23.213 4.442 3.477 7.781 7.036 9.813 10.383h-327.113zm343.404 0c-2.168-7.612-7.877-15.166-16.861-22.196-.315-.247-.658-.487-.981-.733-.002-.005-.003-.01-.004-.016 28.825-8.041 58.482-10.173 85.877-6.164 22.933 3.357 43.373 10.981 56.078 20.917 3.466 2.71 6.203 5.521 8.045 8.19h-132.154z"/></g></svg>