<svg width="34" height="34" viewBox="0 0 34 34" fill="none" xmlns="http://www.w3.org/2000/svg">
<g clip-path="url(#clip0)">
<path d="M24.1688 15.2045C24.7129 13.5687 24.585 11.7837 23.8131 10.2423C23.0412 8.70087 21.6886 7.5292 20.0528 6.98505C18.417 6.4409 16.6321 6.56885 15.0906 7.34074C13.5492 8.11264 12.3775 9.46525 11.8334 11.101C9.4397 18.2967 5.67194 19.3267 5.67194 19.3267L24.175 25.4819C24.175 25.4819 21.7751 22.4001 24.1688 15.2045Z" stroke="#2F4858" stroke-width="2" stroke-linecap="round" stroke-linejoin="round"/>
<path d="M15.334 27.1076C15.0497 27.359 14.7042 27.5313 14.3323 27.6073C13.9604 27.6832 13.5751 27.6601 13.2149 27.5403C12.8548 27.4205 12.5324 27.2082 12.2801 26.9246C12.0278 26.641 11.8544 26.2961 11.7773 25.9244" stroke="#2F4858" stroke-width="2" stroke-linecap="round" stroke-linejoin="round"/>
</g>
<defs>
<clipPath id="clip0">
<rect width="26" height="26" fill="white" transform="translate(8.40129 0.825684) rotate(18.4)"/>
</clipPath>
</defs>
</svg>
