<svg width="40" height="40" viewBox="0 0 40 40" fill="none" xmlns="http://www.w3.org/2000/svg">
<g clip-path="url(#clip0)">
<path d="M39.9005 21.4378C39.9113 21.2842 39.9152 21.2203 39.7652 20.9672C39.2357 19.4973 37.8278 18.4433 36.178 18.4433H30.2522L27.1878 12.4936C26.5307 11.2186 25.2319 10.4265 23.7983 10.4265H20.2238V6.64005C20.2238 6.31208 19.9579 6.04614 19.6299 6.04614H8.40859C8.08062 6.04614 7.81469 6.31208 7.81469 6.64005V10.4265H6.65914C4.63234 10.4265 2.97047 12.0171 2.85453 14.0158H0.593906C0.265938 14.0158 0 14.2817 0 14.6097V22.094C0 22.422 0.265938 22.6879 0.593906 22.6879H3.43906C3.43984 22.6879 3.44055 22.688 3.44133 22.688C3.7693 22.688 4.03523 22.4221 4.03523 22.0941V14.239C4.03523 12.7918 5.21227 11.6143 6.65906 11.6143L14.0191 11.6147V13.1299C13.8789 13.0903 13.7316 13.0676 13.579 13.0676H6.89641C6.0018 13.0676 5.27406 13.7954 5.27406 14.69V17.3836C5.27406 18.2783 6.00188 19.006 6.89641 19.006H13.5791C13.7317 19.006 13.879 18.9833 14.0191 18.9437V23.0758H8.72844C8.44891 23.0758 8.20711 23.2708 8.14797 23.544L7.1075 28.3489H6.65906C5.21227 28.3489 4.03523 27.1718 4.03523 25.725V24.9009C4.03523 24.5729 3.7693 24.307 3.44133 24.307C3.11336 24.307 2.84742 24.5729 2.84742 24.9009V25.725C2.84742 27.8268 4.55734 29.5368 6.65914 29.5368H9.71031C9.70859 29.5861 9.70656 29.6352 9.70656 29.685C9.70656 30.8942 10.2116 31.987 11.0207 32.766H8.59703C8.26906 32.766 8.00313 33.0319 8.00313 33.3599C8.00313 33.6879 8.26906 33.9538 8.59703 33.9538H39.3664C39.6944 33.9538 39.9603 33.6879 39.9603 33.3599C39.9603 33.0319 39.6944 32.766 39.3664 32.766H35.8267C36.6359 31.987 37.1409 30.8942 37.1409 29.685C37.1409 29.5948 37.1371 29.5055 37.1316 29.4167C38.7973 28.9943 39.9898 27.5022 39.9898 25.7251C39.9898 25.7251 40.0445 22.0742 39.9005 21.4378ZM2.84734 21.5002H1.18781V15.2036H2.84734V21.5002ZM14.0137 17.3837C14.0137 17.6233 13.8188 17.8183 13.5791 17.8183H6.89641C6.6568 17.8183 6.46187 17.6233 6.46187 17.3837V14.69C6.46187 14.4504 6.6568 14.2555 6.89641 14.2555H13.5791C13.8187 14.2555 14.0136 14.4504 14.0136 14.69V17.3837H14.0137ZM19.0361 10.4265H12.3517V7.23396H19.0361V10.4265ZM9.0025 7.23396H11.1639V10.4265H9.0025V7.23396ZM8.32289 28.349L9.2075 24.2636H18.831L19.7156 28.349H18.0499C17.4873 26.6419 15.8786 25.4059 13.9855 25.4059C12.0926 25.4059 10.4838 26.6419 9.92125 28.349H8.32289ZM10.8944 29.685C10.8944 29.4729 10.9159 29.2658 10.9568 29.0655C10.9572 29.0636 10.9576 29.0617 10.958 29.0598C11.2478 27.654 12.4952 26.5938 13.9856 26.5938C15.6902 26.5938 17.0769 27.9805 17.0769 29.685C17.0769 31.3086 15.8185 32.6429 14.2259 32.7661H13.7453C12.1527 32.6428 10.8944 31.3086 10.8944 29.685ZM16.9505 32.766C17.7597 31.987 18.2647 30.8942 18.2647 29.685C18.2647 29.6353 18.2626 29.5861 18.2609 29.5368H28.5865C28.5848 29.5861 28.5827 29.6352 28.5827 29.685C28.5827 30.8942 29.0877 31.987 29.8969 32.766H16.9505ZM33.1021 32.766H32.6215C31.029 32.6428 29.7706 31.3086 29.7706 29.685C29.7706 29.4734 29.7921 29.2668 29.8328 29.067C29.8334 29.0641 29.8341 29.0612 29.8346 29.0583C30.1251 27.6533 31.372 26.5938 32.8619 26.5938C34.5664 26.5938 35.9531 27.9805 35.9531 29.685C35.953 31.3086 34.6946 32.6428 33.1021 32.766ZM38.802 25.7251C38.802 26.928 38.0089 27.9414 36.893 28.2513C36.3021 26.595 34.7185 25.4059 32.8617 25.4059C30.9688 25.4059 29.36 26.6419 28.7974 28.349H27.2956L28.1802 24.2636H28.9601C29.288 24.2636 29.554 23.9977 29.554 23.6697C29.554 23.3418 29.288 23.0758 28.9601 23.0758H27.7012C27.4216 23.0758 27.1798 23.2708 27.1207 23.544L26.0802 28.349H20.9309L19.8905 23.544C19.8313 23.2708 19.5895 23.0758 19.31 23.0758H15.2069V11.6147L23.7983 11.6143C24.7852 11.6143 25.6795 12.1598 26.132 13.0377L29.362 19.3092C29.4638 19.5069 29.6676 19.6311 29.89 19.6311H36.178C37.0685 19.6311 37.8564 20.0776 38.3309 20.7583H36.5468C36.2188 20.7583 35.9529 21.0242 35.9529 21.3522C35.9529 21.6801 36.2188 21.9461 36.5468 21.9461H38.783C38.795 22.0478 38.8019 23.0759 38.8019 23.0759H31.7648C31.4369 23.0759 31.1709 23.3418 31.1709 23.6698C31.1709 23.9978 31.4369 24.2637 31.7648 24.2637H38.802V25.7251Z" fill="#8960BE"/>
<path d="M25.5247 13.9249C25.2416 13.3476 24.6434 12.9746 24.0003 12.9746L18.1972 12.975C17.2612 12.9751 16.4997 13.7366 16.4997 14.6726V20.8254C16.4997 21.7614 17.2613 22.523 18.1973 22.523H22.0321C22.27 22.523 22.4856 22.3794 22.5791 22.1606C22.6323 22.036 23.9184 19.1086 27.1135 19.1086C27.3185 19.1086 27.5091 19.0028 27.6175 18.8289C27.7259 18.6549 27.737 18.4373 27.6468 18.2533L25.5247 13.9249ZM21.6629 21.3352H18.1974C17.9163 21.3352 17.6876 21.1065 17.6876 20.8254V14.6726C17.6876 14.3915 17.9163 14.1628 18.1974 14.1628L24.0004 14.1624C24.1935 14.1624 24.3732 14.2745 24.4581 14.4478L26.1938 17.9878C23.5084 18.3881 22.1249 20.4768 21.6629 21.3352Z" fill="#8960BE"/>
<path d="M33.1305 30.2463C33.4897 30.1614 33.7121 29.8013 33.6272 29.4421C33.5423 29.0828 33.1822 28.8604 32.823 28.9454C32.4637 29.0303 32.2414 29.3903 32.3263 29.7496C32.4112 30.1088 32.7713 30.3312 33.1305 30.2463Z" fill="#8960BE"/>
<path d="M14.4535 30.0823C14.7146 29.8212 14.7146 29.398 14.4535 29.137C14.1925 28.8759 13.7693 28.8759 13.5083 29.137C13.2472 29.398 13.2472 29.8212 13.5083 30.0823C13.7693 30.3433 14.1925 30.3433 14.4535 30.0823Z" fill="#8960BE"/>
<path d="M5.84425 32.7659H2.32651C1.99854 32.7659 1.7326 33.0318 1.7326 33.3598C1.7326 33.6877 1.99854 33.9537 2.32651 33.9537H5.84432C6.17229 33.9537 6.43823 33.6877 6.43823 33.3598C6.43815 33.0317 6.17229 32.7659 5.84425 32.7659Z" fill="#8960BE"/>
</g>
<defs>
<clipPath id="clip0">
<rect width="40" height="40" fill="white"/>
</clipPath>
</defs>
</svg>
