<svg width="24" height="23" viewBox="0 0 24 23" fill="none" xmlns="http://www.w3.org/2000/svg">
<circle cx="12.2877" cy="13.6982" r="8.64706" fill="#FBE200"/>
<path d="M12.5155 9.05603C12.5155 10.3019 11.5142 11.3088 10.2797 11.3088H3.37348C2.139 11.3088 1.13776 10.3019 1.13776 9.05603C1.13776 7.93533 1.95126 7.00804 3.02077 6.83738C3.0037 6.75773 2.99801 6.67809 2.99801 6.59275C2.99801 5.80769 3.62948 5.16485 4.41454 5.16485C4.76156 5.16485 5.08582 5.2957 5.33044 5.50618C5.76849 4.51063 6.33168 3.59473 7.91319 3.59473C9.83033 3.59473 10.7349 5.08521 10.7349 6.66102C10.7349 6.7236 10.7349 6.79186 10.7292 6.85444C11.2345 6.96032 11.688 7.23701 12.0133 7.63797C12.3387 8.03893 12.516 8.53969 12.5155 9.05603Z" fill="#C4C4C4"/>
<path d="M23.6659 19.7967C23.6659 21.2918 22.4644 22.5001 20.983 22.5001H12.6955C11.2141 22.5001 10.0126 21.2918 10.0126 19.7967C10.0126 18.4519 10.9888 17.3391 12.2722 17.1343C12.2518 17.0388 12.2449 16.9432 12.2449 16.8408C12.2449 15.8987 13.0027 15.1273 13.9448 15.1273C14.3612 15.1273 14.7503 15.2843 15.0439 15.5369C15.5695 14.3423 16.2453 13.2432 18.1431 13.2432C20.4437 13.2432 21.5292 15.0317 21.5292 16.9227C21.5292 16.9978 21.5292 17.0797 21.5223 17.1548C22.1288 17.2819 22.6729 17.6139 23.0633 18.0951C23.4537 18.5762 23.6665 19.1771 23.6659 19.7967Z" fill="#C4C4C4"/>
</svg>
