<svg width="144" height="144" viewBox="0 0 144 144" fill="none" xmlns="http://www.w3.org/2000/svg">
<path d="M33.8288 50.1429L39.407 50.8514C40.1088 50.9528 40.825 50.8449 41.4659 50.5415C42.1068 50.238 42.644 49.7523 43.0103 49.1451C44.0181 47.4088 45.5159 46.0086 47.316 45.1199C49.1161 44.2312 51.1385 43.8936 53.1297 44.1494L55.5688 44.4611C56.1833 44.5377 56.8073 44.453 57.3792 44.2155C57.9512 43.9779 58.4514 43.5955 58.8309 43.106L60.9802 40.3179C61.7468 39.3288 62.1773 38.1207 62.2088 36.8697C62.2403 35.6187 61.8713 34.3903 61.1556 33.3639L56.5215 26.6802C54.8557 24.2854 52.6903 22.2804 50.1746 20.8034C49.4215 20.3626 48.6943 19.879 47.9966 19.355L39.8391 13.2212C34.1488 16.3119 28.9352 20.2091 24.3601 24.7918C13.6962 35.3966 6.94773 49.3072 5.21924 64.2469C7.70093 63.7791 10.2666 64.0919 12.5633 65.142C14.86 66.1921 16.7748 67.9281 18.0445 70.1111C18.5094 70.9076 19.0867 71.6329 19.7584 72.2649L24.6144 76.8357C25.3167 77.4954 26.1698 77.9731 27.0992 78.2272L27.666 78.3823C29.5421 78.8989 31.2526 79.892 32.6315 81.2651C34.0103 82.6382 35.0106 84.3446 35.5351 86.2185L38.1387 95.6116C38.4031 96.569 38.8489 97.4667 39.4519 98.2559L47.3405 108.6C48.4617 110.072 49.2074 111.796 49.5133 113.621L51.6573 126.485C51.6709 126.605 51.726 126.717 51.8132 126.8C51.8739 126.852 51.9478 126.885 52.0266 126.897C52.1055 126.909 52.1861 126.899 52.2593 126.867C52.6343 126.711 52.9595 126.455 53.1997 126.127C53.4399 125.799 53.5861 125.412 53.6224 125.007C53.905 122.095 55.0681 119.339 56.9567 117.106L59.2429 114.357C59.5299 114.012 59.7455 113.614 59.8772 113.186L62.2243 105.565C62.9989 103.037 64.5442 100.815 66.6442 99.2083L73.6307 93.8434C73.8561 93.6817 74.0127 93.4412 74.0692 93.1695C74.0944 93.0269 74.0875 92.8805 74.0489 92.7409C74.0103 92.6013 73.941 92.4721 73.8462 92.3627L69.1945 86.8902C68.8934 86.5361 68.6032 86.1653 68.3302 85.7858L64.7748 80.8299C62.9748 78.3206 60.2388 76.8694 57.456 76.9389C56.8522 76.9549 56.2564 76.7982 55.7386 76.4872L48.4711 72.1266C47.6329 71.6268 46.6799 71.3517 45.7042 71.328C44.7286 71.3043 43.7633 71.5328 42.9019 71.9914L39.073 74.0426C37.0852 75.0986 34.7727 75.367 32.5959 74.7945C30.4191 74.2219 28.5379 72.8504 27.327 70.9531L23.609 65.0819C22.6212 63.5224 22.1102 61.7085 22.1387 59.8627C22.1672 58.0169 22.7341 56.2196 23.7696 54.6915C24.858 53.0734 26.3757 51.7906 28.1526 50.9872C29.9294 50.1837 31.895 49.8914 33.8288 50.1429Z" fill="#2762CB"/>
<path d="M133.387 92.4074C131.495 92.4828 129.663 93.0898 128.1 94.1587C126.538 95.2277 125.308 96.7153 124.552 98.4511L124.129 99.3821C123.309 101.233 121.967 102.804 120.267 103.902C118.566 105.001 116.583 105.579 114.559 105.565H107.514C106.364 105.583 105.25 105.167 104.393 104.401C103.535 103.635 102.997 102.574 102.886 101.43L102.62 98.6806C102.478 97.172 101.996 95.7151 101.21 94.42C100.423 93.1249 99.3531 92.0253 98.0796 91.2043C97.3229 90.71 96.7037 90.0322 96.2796 89.2341C95.8554 88.436 95.6402 87.5436 95.6539 86.6399V83.818C95.6428 82.8417 95.8402 81.8742 96.2328 80.9802C96.6255 80.0863 97.2043 79.2863 97.9307 78.6338L109.903 68.0042C111.398 66.6788 112.483 64.9528 113.029 63.0302C113.575 61.1076 113.558 59.069 112.982 57.1554C112.381 55.1754 111.218 53.4124 109.635 52.0802C108.051 50.748 106.115 49.9038 104.062 49.6501L102.847 49.5004C101.056 49.2808 99.4099 48.4084 98.2226 47.0502C97.5722 46.3118 97.1679 45.3892 97.0659 44.4105C96.9639 43.4319 97.1693 42.4457 97.6535 41.5891L100.182 37.2676C103.331 31.8854 107.044 26.8534 111.258 22.2567L113.162 19.5994C103.308 11.8268 91.4709 6.9759 78.9964 5.59846C66.5218 4.22101 53.9111 6.37235 42.5988 11.8077L49.6711 17.1266C50.2836 17.5864 50.9219 18.0109 51.5829 18.398C54.4485 20.0805 56.9152 22.3645 58.8127 25.0925L63.4471 31.7756C64.5015 33.2878 65.0451 35.0975 64.9986 36.9404C64.9521 38.7834 64.3179 40.5633 63.1887 42.0205L61.0393 44.8086C60.3624 45.6827 59.4694 46.3655 58.4484 46.7895C57.4273 47.2136 56.3134 47.3644 55.2164 47.227L52.7773 46.915C51.3297 46.7287 49.8593 46.974 48.5506 47.6202C47.2418 48.2663 46.153 49.2845 45.4206 50.547C44.7798 51.6286 43.8339 52.4969 42.7015 53.0431C41.5692 53.5893 40.3008 53.7891 39.0554 53.6173L33.4764 52.9088C32.0539 52.7235 30.6079 52.9384 29.3008 53.5294C27.9937 54.1204 26.8772 55.0641 26.0768 56.2546C25.3457 57.3333 24.9455 58.6021 24.9253 59.9051C24.9052 61.2081 25.2659 62.4886 25.9633 63.5895L29.6829 69.4624C30.5153 70.7664 31.8083 71.7091 33.3045 72.1026C34.8006 72.4962 36.3901 72.3118 37.7564 71.5861L41.5853 69.5346C42.8724 68.8495 44.3144 68.5082 45.772 68.5436C47.2296 68.579 48.6533 68.99 49.9056 69.7367L57.173 74.097C57.236 74.1365 57.3094 74.156 57.3836 74.1528C61.0889 74.0552 64.7012 75.9447 67.0407 79.206L70.5958 84.1618C70.8233 84.4785 71.0662 84.7894 71.3179 85.0855L75.9699 90.5569C76.3242 90.9739 76.5838 91.4627 76.7309 91.9897C76.878 92.5168 76.909 93.0694 76.8219 93.6096C76.656 94.5859 76.1213 95.4612 75.3283 96.0545L68.3422 101.419C66.7014 102.675 65.494 104.412 64.8889 106.387L62.5404 114.006C62.3008 114.786 61.9083 115.511 61.3859 116.138L59.0996 118.887C57.5726 120.687 56.6303 122.91 56.3982 125.259C56.3166 126.168 55.9884 127.037 55.449 127.774C54.9096 128.51 54.1794 129.085 53.3372 129.437C52.9441 129.603 52.5221 129.688 52.0956 129.688C51.3231 129.69 50.5757 129.414 49.9902 128.91C49.4047 128.406 49.0201 127.708 48.9069 126.944L46.7628 114.08C46.5319 112.703 45.9692 111.402 45.1234 110.291L37.2348 99.9469C36.4157 98.8753 35.8099 97.6564 35.4504 96.3564L32.8468 86.9633C32.4526 85.5545 31.7006 84.2716 30.6639 83.2393C29.6273 82.207 28.3412 81.4604 26.9308 81.072L26.3639 80.9173C24.9943 80.5425 23.7371 79.8383 22.7021 78.8661L17.8477 74.2956C16.9814 73.4801 16.2369 72.5443 15.637 71.5169C14.6532 69.8231 13.1665 68.4776 11.3831 67.6673C9.59977 66.8569 7.60836 66.6221 5.68542 66.9952L4.94239 67.1418C4.82194 68.7863 4.76172 70.4416 4.76172 72.108C4.76168 85.3425 8.68612 98.2797 16.0388 109.284C23.3914 120.288 33.8421 128.865 46.0691 133.929C58.2962 138.994 71.7505 140.319 84.7306 137.737C97.7108 135.155 109.634 128.782 118.992 119.424C126.598 111.848 132.26 102.547 135.496 92.3117C135.345 92.3254 135.193 92.3335 135.044 92.3396L133.387 92.4074Z" fill="#2762CB"/>
<path d="M115.318 21.3779L113.475 23.9494C113.442 23.9952 113.407 24.039 113.369 24.0804C109.266 28.5475 105.652 33.4401 102.588 38.675L100.069 42.9841C99.8785 43.3374 99.801 43.7404 99.8464 44.1391C99.8918 44.5377 100.058 44.913 100.323 45.2145C101.059 46.0568 102.081 46.5977 103.192 46.7338L104.41 46.8835C107 47.2033 109.442 48.2675 111.44 49.9472C113.438 51.627 114.906 53.8501 115.665 56.3472C116.399 58.7705 116.422 61.3531 115.733 63.7894C115.045 66.2257 113.672 68.4137 111.779 70.0945L99.7766 80.723C99.3463 81.1138 99.0045 81.5922 98.7743 82.1259C98.5441 82.6597 98.4308 83.2366 98.442 83.8178V86.6391C98.4294 87.0741 98.5285 87.5052 98.7297 87.8911C98.9309 88.2771 99.2276 88.6051 99.5915 88.8439C101.213 89.8895 102.576 91.2906 103.576 92.9409C104.576 94.5913 105.187 96.4476 105.363 98.3692L105.644 101.152C105.692 101.609 105.912 102.03 106.259 102.332C106.605 102.633 107.053 102.792 107.513 102.776H114.557C116.04 102.79 117.494 102.369 118.74 101.567C119.987 100.764 120.972 99.6146 121.574 98.2596L121.997 97.3621C122.96 95.147 124.527 93.2477 126.518 91.8815C128.51 90.5154 130.846 89.7375 133.259 89.6371L134.915 89.5618C135.047 89.5557 135.182 89.546 135.317 89.5326L136.332 89.4305C137.835 83.7789 138.594 77.9556 138.591 72.1078C138.615 63.3169 136.895 54.6085 133.531 46.4868C130.167 38.365 125.225 30.9911 118.992 24.792C117.803 23.6035 116.578 22.4655 115.318 21.3779Z" fill="#2762CB"/>
</svg>
