<svg width="40" height="30" viewBox="0 0 40 30" fill="none" xmlns="http://www.w3.org/2000/svg">
<path d="M39.9438 14.2934C39.9091 13.9459 39.577 13.6996 39.2251 13.7821C38.937 13.8496 38.7516 14.1327 38.7805 14.4273C38.8129 14.7566 38.8292 15.092 38.8292 15.4244V22.3239C38.262 21.8485 37.5318 21.5616 36.7355 21.5616H36.6912C35.8941 21.5616 35.1631 21.8492 34.5956 22.3256C34.5527 20.0838 32.7884 18.2736 30.6242 18.2736H26.5483C24.3573 18.2736 22.5748 20.1287 22.5748 22.409V25.0497H21.3051V23.5975C21.3051 23.277 21.058 22.9974 20.7376 22.9878C20.406 22.9779 20.1342 23.2437 20.1342 23.573V25.0497H18.9004V24.8261C18.9004 23.1402 17.6156 21.7488 15.9738 21.5791L15.1213 17.4541C14.9861 16.7996 14.5735 16.2382 13.9892 15.9138C13.4195 15.5975 12.7448 15.539 12.1304 15.7505C11.4737 15.878 10.7987 15.9331 10.1227 15.915C5.35789 15.7859 1.27469 11.6494 1.20625 6.88219C1.18352 5.30187 1.56766 3.74617 2.31891 2.36711L3.15672 2.84281C2.53109 3.92414 2.17555 5.07289 2.17555 6.02727C2.17555 8.66141 4.31859 10.8044 6.95266 10.8044C8.56133 10.8044 10.0191 10.0143 10.8954 8.72641C11.1877 8.2968 11.3847 7.80914 11.4913 7.30047C12.1495 4.15859 14.9815 1.83289 18.2264 1.83289C19.6845 1.83289 21.0731 2.28523 22.2341 3.12109C21.483 3.25 20.7532 3.47609 20.0836 3.79945C19.7945 3.93906 19.6535 4.28688 19.7871 4.57875C19.9245 4.87875 20.2808 5.00563 20.5759 4.86195C22.3681 3.98969 24.7624 3.93625 26.5336 4.72883C29.2505 5.94438 30.4717 9.14367 29.2562 11.8605C28.0405 14.5774 24.8411 15.7987 22.1245 14.583C19.4315 13.3781 17.1623 9.725 18.3835 6.9957C18.4555 6.83484 18.54 6.67711 18.6348 6.5268C18.802 6.26141 18.7399 5.90047 18.4823 5.72141C18.2074 5.53031 17.8312 5.60781 17.6535 5.88781C17.5256 6.0893 17.4116 6.30117 17.3148 6.5175C15.804 9.89422 18.4026 14.2005 21.6462 15.6518C22.5149 16.0405 23.4241 16.2245 24.3195 16.2245C26.8316 16.2245 29.2343 14.7762 30.3249 12.3387C31.4002 9.93547 30.9074 7.22297 29.2888 5.35195C33.2948 5.57156 36.8423 8.17625 38.2242 11.975C38.3344 12.2818 38.6787 12.435 38.9745 12.325C39.2784 12.2145 39.435 11.8786 39.3245 11.5748C37.712 7.14234 33.4584 4.1643 28.7398 4.1643H27.9323C27.6436 3.97508 27.3369 3.80555 27.0118 3.66008C26.062 3.23516 24.9846 3.01484 23.8934 2.99531C22.3756 1.49062 20.3642 0.662109 18.2263 0.662109C16.2902 0.662109 14.419 1.35938 12.9573 2.62555C11.6786 3.73313 10.7839 5.21086 10.3948 6.83898C10.0219 8.39891 8.69203 9.57172 7.0893 9.63109C7.04391 9.63281 6.99828 9.63359 6.9525 9.63359C4.96398 9.63359 3.34625 8.01586 3.34625 6.02734C3.34625 5.23242 3.69594 4.19141 4.28156 3.24266C4.55789 2.81312 4.40359 2.19078 3.95227 1.9482L2.68438 1.2282C2.24383 0.978047 1.67891 1.13055 1.42508 1.5682C0.489141 3.18211 0.00867188 5.02547 0.035625 6.89898C0.0732031 9.51953 1.14766 12.0303 3.06117 13.9689C4.97484 15.9076 7.47141 17.0145 10.0911 17.0854C10.8146 17.1048 11.5373 17.0495 12.2428 16.9207C12.3204 16.9066 12.3976 16.8893 12.4726 16.8649C12.8862 16.7304 13.3452 16.7955 13.6732 17.1275C13.8323 17.2858 13.9339 17.4928 13.9793 17.7126L14.7954 21.662C14.6143 21.7077 14.437 21.768 14.2663 21.8438C13.758 20.6793 12.5863 19.8741 11.2705 19.8741C11.2705 19.8741 10.8218 19.8927 10.6241 19.9298C10.0977 18.7937 8.95188 18.0409 7.66234 18.0409H7.61805C5.81516 18.0409 4.35367 19.5023 4.35367 21.3052V22.1176C4.02086 22.0051 3.66945 21.9473 3.30859 21.9473H3.2643C1.46148 21.9473 0 23.4088 0 25.2116V27.9719C0 28.7262 0.611562 29.3378 1.36594 29.3378H30.1485C30.4691 29.3378 30.7486 29.0908 30.7582 28.7704C30.7681 28.4388 30.5024 28.167 30.173 28.167H29.1716V19.4445H30.6242C32.1695 19.4445 33.4268 20.7743 33.4268 22.409V28.167H33.2173C32.8968 28.167 32.6173 28.4141 32.6077 28.7345C32.5977 29.066 32.8634 29.3379 33.1928 29.3379H38.634C39.3884 29.3379 39.9999 28.7263 39.9999 27.972V15.4244C40 15.0474 39.9811 14.667 39.9438 14.2934ZM22.5748 26.2205V28.167H21.3052V26.2205H22.5748ZM20.1343 26.2205V28.167H18.9005V26.2205H20.1343ZM1.36594 28.167C1.25828 28.167 1.17078 28.0795 1.17078 27.9719V25.2116C1.17078 24.0573 2.11 23.118 3.26437 23.118C3.74367 23.1093 4.20281 23.2581 4.58242 23.5507C4.94641 23.8497 5.53992 23.5572 5.52461 23.0866V21.3052C5.5232 20.1348 6.49297 19.187 7.66242 19.2116C8.62023 19.2116 9.45445 19.8587 9.69102 20.7852C9.76781 21.1176 10.1549 21.3167 10.47 21.1862C10.7255 21.0866 10.9962 21.0402 11.2706 21.0447C12.2973 21.0447 13.1871 21.8086 13.3404 22.8216C13.3924 23.2557 13.9525 23.4746 14.2852 23.1909C14.6709 22.8812 15.1416 22.7233 15.6361 22.7324C16.7905 22.7324 17.7297 23.6716 17.7297 24.826V28.167H1.36594V28.167ZM28.0009 28.167H23.7457V22.409C23.7457 20.7743 25.003 19.4445 26.5484 19.4445H28.0009V28.167ZM38.8291 27.9719C38.8291 28.0795 38.7416 28.167 38.634 28.167H34.5977V24.8261C34.5977 23.6717 35.5369 22.7325 36.6912 22.7325H36.7355C37.89 22.7325 38.8292 23.6717 38.8292 24.8261V27.9719H38.8291Z" fill="#1F83A4"/>
</svg>
