<svg width="132" height="135" viewBox="0 0 132 135" fill="none" xmlns="http://www.w3.org/2000/svg">
<path d="M129.387 87.4074C127.495 87.4828 125.663 88.0898 124.1 89.1587C122.538 90.2277 121.308 91.7153 120.552 93.4511L120.129 94.3821C119.309 96.2327 117.967 97.8037 116.267 98.9021C114.566 100.001 112.583 100.579 110.559 100.565H103.514C102.364 100.583 101.25 100.167 100.393 99.4012C99.535 98.635 98.9972 97.5742 98.886 96.4297L98.6197 93.6806C98.4785 92.172 97.9964 90.7151 97.2099 89.42C96.4234 88.1249 95.3531 87.0253 94.0796 86.2043C93.3229 85.71 92.7037 85.0322 92.2796 84.2341C91.8554 83.436 91.6402 82.5436 91.6539 81.6399V78.818C91.6428 77.8417 91.8402 76.8742 92.2328 75.9802C92.6255 75.0863 93.2043 74.2863 93.9307 73.6338L105.903 63.0042C107.398 61.6788 108.483 59.9528 109.029 58.0302C109.575 56.1076 109.558 54.069 108.982 52.1554C108.381 50.1754 107.218 48.4124 105.635 47.0802C104.051 45.748 102.115 44.9038 100.062 44.6501L98.8469 44.5004C97.0564 44.2808 95.4099 43.4084 94.2226 42.0502C93.5722 41.3118 93.1679 40.3892 93.0659 39.4105C92.9639 38.4319 93.1693 37.4457 93.6535 36.5891L96.1815 32.2676C99.331 26.8854 103.044 21.8534 107.258 17.2567L109.162 14.5994C99.3085 6.82681 87.4709 1.9759 74.9964 0.598456C62.5218 -0.778985 49.9111 1.37235 38.5988 6.80772L45.6711 12.1266C46.2836 12.5864 46.9219 13.0109 47.5829 13.398C50.4485 15.0805 52.9152 17.3645 54.8127 20.0925L59.4471 26.7756C60.5015 28.2878 61.0451 30.0975 60.9986 31.9404C60.9521 33.7834 60.3179 35.5633 59.1887 37.0205L57.0393 39.8086C56.3624 40.6827 55.4694 41.3655 54.4484 41.7895C53.4273 42.2136 52.3134 42.3644 51.2164 42.227L48.7773 41.915C47.3297 41.7287 45.8593 41.974 44.5506 42.6202C43.2418 43.2663 42.153 44.2845 41.4206 45.547C40.7798 46.6286 39.8339 47.4969 38.7015 48.0431C37.5692 48.5893 36.3008 48.7891 35.0554 48.6173L29.4764 47.9088C28.0539 47.7235 26.6079 47.9384 25.3008 48.5294C23.9937 49.1204 22.8772 50.0641 22.0768 51.2546C21.3457 52.3333 20.9455 53.6021 20.9253 54.9051C20.9052 56.2081 21.2659 57.4886 21.9633 58.5895L25.6829 64.4624C26.5153 65.7664 27.8083 66.7091 29.3045 67.1026C30.8006 67.4962 32.3901 67.3118 33.7564 66.5861L37.5853 64.5346C38.8724 63.8495 40.3144 63.5082 41.772 63.5436C43.2296 63.579 44.6533 63.99 45.9056 64.7367L53.173 69.097C53.236 69.1365 53.3094 69.156 53.3836 69.1528C57.0889 69.0552 60.7012 70.9447 63.0407 74.206L66.5958 79.1618C66.8233 79.4785 67.0662 79.7894 67.3179 80.0855L71.9699 85.5569C72.3242 85.9739 72.5838 86.4627 72.7309 86.9897C72.878 87.5168 72.909 88.0694 72.8219 88.6096C72.656 89.5859 72.1213 90.4612 71.3283 91.0545L64.3422 96.4193C62.7014 97.6748 61.494 99.4117 60.8889 101.387L58.5404 109.006C58.3008 109.786 57.9083 110.511 57.3859 111.138L55.0996 113.887C53.5726 115.687 52.6303 117.91 52.3982 120.259C52.3166 121.168 51.9884 122.037 51.449 122.774C50.9096 123.51 50.1794 124.085 49.3372 124.437C48.9441 124.603 48.5221 124.688 48.0956 124.688C47.3231 124.69 46.5757 124.414 45.9902 123.91C45.4047 123.406 45.0201 122.708 44.9069 121.944L42.7628 109.08C42.5319 107.703 41.9692 106.402 41.1234 105.291L33.2348 94.9469C32.4157 93.8753 31.8099 92.6564 31.4504 91.3564L28.8468 81.9633C28.4526 80.5545 27.7006 79.2716 26.6639 78.2393C25.6273 77.207 24.3412 76.4604 22.9308 76.072L22.3639 75.9173C20.9943 75.5425 19.7371 74.8383 18.7021 73.8661L13.8477 69.2956C12.9814 68.4801 12.2369 67.5443 11.637 66.5169C10.6532 64.8231 9.16646 63.4776 7.38311 62.6673C5.59977 61.8569 3.60836 61.6221 1.68542 61.9952L0.942388 62.1418C0.821942 63.7863 0.761719 65.4416 0.761719 67.108C0.761678 80.3425 4.68612 93.2797 12.0388 104.284C19.3914 115.288 29.8421 123.865 42.0691 128.929C54.2962 133.994 67.7505 135.319 80.7306 132.737C93.7108 130.155 105.634 123.782 114.992 114.424C122.598 106.848 128.26 97.5469 131.496 87.3117C131.345 87.3254 131.193 87.3335 131.044 87.3396L129.387 87.4074Z" fill="#2762CB"/>
</svg>
