<svg width="39" height="38" viewBox="0 0 39 38" fill="none" xmlns="http://www.w3.org/2000/svg">
<path d="M22.4968 5.57284C19.0446 4.96411 15.5619 5.73624 12.6904 7.74687C10.2366 9.46503 8.43076 11.994 7.60556 14.8679C6.7925 17.6993 6.95638 20.7517 8.06694 23.4627L9.69067 22.7975C8.72904 20.4501 8.58751 17.806 9.29212 15.3521C10.0068 12.8631 11.5711 10.6726 13.6969 9.18413C18.8321 5.58842 25.9352 6.8409 29.5309 11.9761C33.1266 17.1113 31.8742 24.2144 26.7389 27.8101C22.2056 30.9844 16.139 30.3796 12.3053 26.6613L12.8669 26.7039L12.9996 24.9542L10.0772 24.7327L9.48238 25.1492L8.69107 27.9712L10.3806 28.4449L10.6503 27.4829C12.5786 29.5446 15.1095 30.9226 17.939 31.4215C21.3912 32.0303 24.8738 31.2582 27.7453 29.2475C30.6169 27.2368 32.5335 24.2283 33.1422 20.7761C33.751 17.3239 32.9789 13.8412 30.9682 10.9697C28.9575 8.09816 25.949 6.18155 22.4968 5.57284Z" fill="#2762CB"/>
<path d="M18.3063 10.3145C19.336 11.1143 20.2928 11.9694 21.1731 12.8746C22.3242 12.3156 23.5284 11.8367 24.78 11.4407C22.8691 10.2062 20.5227 9.79743 18.3063 10.3145Z" fill="#2762CB"/>
<path d="M19.5544 13.7339C18.5789 12.7715 17.5073 11.8715 16.3453 11.0408C16.022 11.2092 15.7058 11.4003 15.399 11.6151C15.0923 11.8298 14.8046 12.0616 14.5358 12.3078C14.9196 13.6862 15.3997 15.0031 15.9718 16.2509C16.5409 15.771 17.1272 15.3192 17.7299 14.8966L17.744 14.8867C18.3288 14.4772 18.9329 14.0933 19.5544 13.7339Z" fill="#2762CB"/>
<path d="M27.6506 14.5794C27.4879 14.2718 27.3046 13.9707 27.0998 13.6783C26.8801 13.3645 26.6425 13.0708 26.3899 12.7966C25.0006 13.1716 23.6698 13.6516 22.4059 14.2324C22.8888 14.8046 23.3432 15.3943 23.7683 16.0004C24.1838 16.5929 24.5733 17.2053 24.9374 17.8357C25.916 16.8456 26.8227 15.7581 27.6506 14.5794Z" fill="#2762CB"/>
<path d="M13.3358 23.3159C13.5406 23.6083 13.7607 23.8835 13.9941 24.1415C15.386 23.7563 16.715 23.2728 17.974 22.696C17.5092 22.1413 17.0696 21.5691 16.6573 20.9795C16.2355 20.3762 15.8391 19.7511 15.4684 19.1055C14.4963 20.0902 13.5879 21.1726 12.7502 22.3474C12.9215 22.6785 13.1162 23.0022 13.3358 23.3159Z" fill="#2762CB"/>
<path d="M18.0955 19.9742C18.5569 20.6341 19.0557 21.2706 19.5883 21.8838C20.3218 21.4799 21.028 21.0421 21.7037 20.5696L21.7168 20.5604C22.3743 20.1 23.0086 19.6024 23.6197 19.0712C23.2245 18.3583 22.7956 17.6694 22.3317 17.0079C21.8583 16.3329 21.3444 15.6799 20.7934 15.0495C20.0878 15.4409 19.4057 15.8654 18.7506 16.3242C18.7461 16.3273 18.7418 16.3303 18.7374 16.3334C18.0647 16.8051 17.4139 17.3172 16.7854 17.8662C17.1883 18.597 17.6247 19.3008 18.0955 19.9742Z" fill="#2762CB"/>
<path d="M12.0283 20.3786C12.8353 19.3378 13.6987 18.3717 14.6129 17.4831C14.0612 16.3429 13.5832 15.1476 13.1824 13.9023C11.937 15.8104 11.519 18.1584 12.0283 20.3786Z" fill="#2762CB"/>
<path d="M28.3896 16.5373C27.5859 17.5852 26.7196 18.5591 25.7957 19.4551C26.361 20.6206 26.8448 21.84 27.243 23.1083C28.5112 21.1748 28.9285 18.7868 28.3896 16.5373Z" fill="#2762CB"/>
<path d="M22.7233 21.9979C22.7186 22.0012 22.7139 22.0045 22.7092 22.0078C22.1025 22.432 21.4738 22.8306 20.8243 23.2031C21.8171 24.1848 22.9077 25.0944 24.0901 25.9245L24.058 25.9701C24.3927 25.7977 24.7198 25.6012 25.0368 25.3793C25.3537 25.1574 25.6502 24.9172 25.9267 24.6617L25.8728 24.6762C25.4978 23.2835 25.017 21.9497 24.4354 20.683C23.8821 21.1472 23.3114 21.5861 22.7233 21.9979Z" fill="#2762CB"/>
<path d="M15.5746 25.5015C17.5052 26.7806 19.8948 27.2069 22.148 26.6758C21.0891 25.8653 20.1056 24.9907 19.2014 24.0575C18.0469 24.6154 16.8365 25.0982 15.5746 25.5015Z" fill="#2762CB"/>
</svg>
