<svg width="40" height="32" viewBox="0 0 40 32" fill="none" xmlns="http://www.w3.org/2000/svg">
<path d="M20 5.94385C18.0432 5.94385 16.1461 6.50643 14.5139 7.5708C14.2428 7.74752 14.1664 8.11057 14.3432 8.38166C14.5199 8.65268 14.883 8.72924 15.154 8.55244C16.5953 7.6126 18.2711 7.1158 20 7.1158C24.8988 7.1158 28.8843 11.1013 28.8843 16.0002C28.8843 20.899 24.8988 24.8845 20 24.8845C15.1011 24.8845 11.1156 20.8989 11.1156 16.0001C11.1156 13.9003 11.8616 11.8627 13.2164 10.2627C13.4254 10.0157 13.3947 9.64596 13.1478 9.43689C12.9008 9.22783 12.5311 9.25854 12.322 9.50549C10.7884 11.3168 9.94379 13.6233 9.94379 16.0001C9.94379 21.5451 14.455 26.0563 20 26.0563C25.545 26.0563 30.0562 21.5451 30.0562 16.0001C30.0562 10.4551 25.545 5.94385 20 5.94385Z" fill="#DFA01F"/>
<path d="M20.0001 1.9978C12.2793 1.9978 5.99786 8.27913 5.99786 16C5.99786 23.7208 12.2793 30.0022 20.0001 30.0022C27.7208 30.0022 34.0022 23.7208 34.0022 16C34.0022 8.27921 27.7208 1.9978 20.0001 1.9978ZM20.0001 28.8303C12.9254 28.8303 7.16974 23.0747 7.16974 16C7.16974 8.9253 12.9254 3.16968 20.0001 3.16968C27.0747 3.16968 32.8304 8.92538 32.8304 16C32.8304 23.0746 27.0747 28.8303 20.0001 28.8303Z" fill="#DFA01F"/>
<path d="M36.4941 0.893066C34.5609 0.893066 32.9881 2.4658 32.9881 4.399V6.76658C32.9881 8.50002 34.2531 9.94283 35.9081 10.2226V20.6228H35.7049C34.9466 20.6228 34.3297 21.2397 34.3297 21.998V29.7321C34.3297 30.4903 34.9466 31.1072 35.7049 31.1072H37.2832C38.0415 31.1072 38.6584 30.4903 38.6584 29.7321V25.8796C38.6584 25.556 38.396 25.2937 38.0724 25.2937C37.7488 25.2937 37.4865 25.556 37.4865 25.8796V29.7321C37.4865 29.8442 37.3953 29.9353 37.2832 29.9353H35.7049C35.5928 29.9353 35.5016 29.8442 35.5016 29.7321V21.998C35.5016 21.8859 35.5928 21.7947 35.7049 21.7947H37.2832C37.3953 21.7947 37.4865 21.8859 37.4865 21.998V23.143C37.4865 23.4666 37.7488 23.7289 38.0724 23.7289C38.396 23.7289 38.6584 23.4666 38.6584 23.143V21.998C38.6584 21.2397 38.0415 20.6228 37.2832 20.6228H37.0799V10.2226C38.7351 9.94283 40 8.50002 40 6.76658V4.399C40 2.4658 38.4273 0.893066 36.4941 0.893066ZM38.8281 6.76658C38.8281 8.05361 37.7811 9.10064 36.4941 9.10064C35.2071 9.10064 34.16 8.05361 34.16 6.76658V4.399C34.16 3.11197 35.2071 2.06494 36.4941 2.06494C37.7811 2.06494 38.8281 3.11197 38.8281 4.399V6.76658Z" fill="#DFA01F"/>
<path d="M7.01188 6.76658V1.479C7.01188 1.15541 6.74953 0.893066 6.42594 0.893066C6.10234 0.893066 5.84 1.15541 5.84 1.479V6.18064H4.09188V1.479C4.09188 1.15541 3.82953 0.893066 3.50594 0.893066C3.18234 0.893066 2.92 1.15541 2.92 1.479V6.18064H1.17188V1.479C1.17188 1.15541 0.909531 0.893066 0.585938 0.893066C0.262344 0.893066 0 1.15541 0 1.479V6.76658C0 8.50002 1.26492 9.94283 2.92 10.2226V20.6228H2.71672C1.95844 20.6228 1.34156 21.2397 1.34156 21.998V23.143C1.34156 23.4666 1.60391 23.7289 1.9275 23.7289C2.25109 23.7289 2.51344 23.4666 2.51344 23.143V21.998C2.51344 21.8859 2.60461 21.7947 2.71672 21.7947H4.29508C4.40719 21.7947 4.49836 21.8859 4.49836 21.998V29.7321C4.49836 29.8442 4.40719 29.9353 4.29508 29.9353H2.71672C2.60461 29.9353 2.51344 29.8442 2.51344 29.7321V25.8796C2.51344 25.556 2.25109 25.2937 1.9275 25.2937C1.60391 25.2937 1.34156 25.556 1.34156 25.8796V29.7321C1.34156 30.4903 1.95844 31.1072 2.71672 31.1072H4.29508C5.05336 31.1072 5.67023 30.4903 5.67023 29.7321V21.998C5.67023 21.2397 5.05336 20.6228 4.29508 20.6228H4.0918V10.2226C5.74695 9.94283 7.01188 8.50002 7.01188 6.76658ZM1.24641 7.35252H5.76539C5.50477 8.35682 4.59062 9.10064 3.50586 9.10064C2.42109 9.10064 1.50703 8.35682 1.24641 7.35252Z" fill="#DFA01F"/>
</svg>
