<?xml version="1.0" encoding="iso-8859-1"?>
<!-- Generator: Adobe Illustrator 19.0.0, SVG Export Plug-In . SVG Version: 6.00 Build 0)  -->
<svg version="1.1" id="Capa_1" xmlns="http://www.w3.org/2000/svg" xmlns:xlink="http://www.w3.org/1999/xlink" x="0px" y="0px"
	 viewBox="0 0 512 512" style="enable-background:new 0 0 512 512;" xml:space="preserve">
<g>
	<g>
		<path d="M488.996,240.18c11.038-16.804,16.829-36.173,16.829-56.537c0-27.039-10.37-52.61-29.201-72.004
			c-15.745-16.216-35.977-26.658-57.964-30.118c0.959-4.557,1.442-9.219,1.442-13.952C420.103,30.312,389.791,0,352.533,0
			c-37.259,0-67.57,30.312-67.57,67.569c0,7.979,1.379,15.767,4.054,23.104C237.216,93.71,196,136.815,196,189.364
			c0,24.505,8.792,47.504,24.919,65.598c-7.193,12.796-10.962,27.164-10.962,42.005c0,47.401,38.563,85.964,85.965,85.964
			c20.843,0,40.688-7.624,56.078-20.86V492H246v-37.029c11.781-5.347,20-17.214,20-30.971c0-18.748-15.252-34-34-34H34
			c-18.748,0-34,15.252-34,34c0,13.758,8.219,25.625,20,30.971V502c0,5.523,4.478,10,10,10h40c5.522,0,10-4.477,10-10v-44h106v34
			h-9.5c-5.522,0-10,4.477-10,10s4.478,10,10,10H407c5.522,0,10-4.477,10-10s-4.478-10-10-10h-35V362.397
			c15.152,13.034,34.683,20.535,55.267,20.535c46.723,0,84.733-38.011,84.733-84.733C512,276.509,503.712,255.826,488.996,240.18z
			 M60,492H40v-34h20V492z M226,492h-20v-34h20V492z M232,438h-36H70H34c-7.72,0-14-6.28-14-14c0-7.72,6.28-14,14-14h198
			c7.72,0,14,6.28,14,14C246,431.72,239.72,438,232,438z M427.267,362.932c-22.593,0-43.531-11.833-55.267-31.046v-46.585
			c0.082-0.076,0.167-0.144,0.247-0.223l56.832-56.832c3.905-3.905,3.905-10.237,0-14.143c-3.905-3.904-10.235-3.905-14.143,0
			L372,257.04v-93.304c0-5.523-4.478-10-10-10c-5.522,0-10,4.477-10,10v25.95l-7.968-7.968c-3.904-3.905-10.234-3.905-14.143,0
			c-3.905,3.905-3.905,10.237,0,14.142L352,217.97v64.135l-27.36-27.359c-0.009-0.009-0.018-0.019-0.027-0.028l-24.167-24.167
			c-3.906-3.905-10.236-3.905-14.143,0c-3.905,3.905-3.905,10.237,0,14.142l14.854,14.853l-27.148,14.84
			c-4.846,2.649-6.627,8.725-3.978,13.571c1.816,3.324,5.245,5.206,8.783,5.206c1.621,0,3.266-0.395,4.788-1.228l32.292-17.652
			L352,310.39v21.284c-12,19.341-33.26,31.257-56.078,31.257c-36.373,0-65.965-29.591-65.965-65.964
			c0-13.524,4.077-26.532,11.789-37.616c2.816-4.046,2.263-9.542-1.304-12.946C224.681,231.363,216,211.105,216,189.364
			c0-43.484,35.377-78.861,78.861-78.861c3.15,0,6.336,0.204,9.738,0.623c3.951,0.484,7.805-1.412,9.828-4.833
			c2.024-3.422,1.83-7.717-0.496-10.941c-5.867-8.135-8.969-17.742-8.969-27.781c0-26.23,21.34-47.569,47.57-47.569
			c26.229,0,47.569,21.339,47.569,47.569c0,6.516-1.298,12.833-3.856,18.778c-1.308,3.039-1.028,6.527,0.746,9.318
			c1.774,2.791,4.814,4.525,8.121,4.63c45.259,1.443,80.712,38.053,80.712,83.346c0,18.893-6.182,36.723-17.876,51.565
			c-3.321,4.215-2.724,10.3,1.354,13.788C483.728,261.333,492,279.267,492,298.198C492,333.893,462.961,362.932,427.267,362.932z"/>
	</g>
</g>
<g>
	<g>
		<path d="M455.059,494.93c-1.859-1.86-4.439-2.93-7.069-2.93c-2.631,0-5.211,1.07-7.07,2.93c-1.86,1.86-2.93,4.44-2.93,7.07
			s1.069,5.21,2.93,7.07c1.859,1.86,4.439,2.93,7.07,2.93c2.63,0,5.21-1.07,7.069-2.93c1.86-1.86,2.931-4.44,2.931-7.07
			S456.92,496.79,455.059,494.93z"/>
	</g>
</g>
<g>
	<g>
		<path d="M104.665,171.986c-14.854-4.468-30.317,0.111-40.441,10.545c-2.852-2.946-6.174-5.464-9.889-7.461
			c-9.45-5.08-20.314-6.174-30.587-3.084c-5.288,1.591-8.286,7.168-6.695,12.457c1.59,5.287,7.169,8.283,12.457,6.694
			c5.158-1.551,10.612-1.002,15.356,1.548c4.745,2.55,8.212,6.795,9.764,11.953c1.271,4.227,5.163,7.12,9.576,7.12
			c4.413,0,8.305-2.893,9.576-7.119c3.204-10.647,14.473-16.704,25.121-13.501c5.289,1.591,10.865-1.406,12.457-6.695
			C112.951,179.154,109.953,173.577,104.665,171.986z"/>
	</g>
</g>
<g>
	<g>
		<path d="M168.458,98.226c-10.271-3.09-21.135-1.996-30.586,3.083c-3.708,1.993-7.024,4.506-9.872,7.444
			c-2.848-2.938-6.164-5.451-9.872-7.444c-9.451-5.08-20.317-6.174-30.586-3.083c-5.289,1.591-8.286,7.168-6.695,12.458
			c1.591,5.289,7.172,8.284,12.457,6.695c5.155-1.551,10.61-1.003,15.355,1.548c4.745,2.55,8.213,6.795,9.765,11.954
			c1.271,4.226,5.163,7.119,9.576,7.119s8.305-2.893,9.576-7.119c1.552-5.158,5.02-9.403,9.765-11.954
			c4.744-2.55,10.197-3.099,15.355-1.548c5.288,1.59,10.864-1.407,12.457-6.695C176.744,105.395,173.747,99.818,168.458,98.226z"/>
	</g>
</g>
<g>
	<g>
		<path d="M294.861,130.836h-0.078c-5.522,0-9.961,4.477-9.961,10s4.517,10,10.039,10c5.522,0,10-4.477,10-10
			S300.384,130.836,294.861,130.836z"/>
	</g>
</g>
<g>
	<g>
		<path d="M266.629,148.649c-3.997-3.812-10.328-3.659-14.138,0.338c-10.42,10.931-16.158,25.271-16.158,40.377
			c0,5.523,4.478,10,10,10c5.522,0,10-4.477,10-10c0-9.944,3.776-19.383,10.635-26.577
			C270.779,158.789,270.627,152.459,266.629,148.649z"/>
	</g>
</g>
<g>
</g>
<g>
</g>
<g>
</g>
<g>
</g>
<g>
</g>
<g>
</g>
<g>
</g>
<g>
</g>
<g>
</g>
<g>
</g>
<g>
</g>
<g>
</g>
<g>
</g>
<g>
</g>
<g>
</g>
</svg>
