<svg width="32" height="33" viewBox="0 0 32 33" fill="none" xmlns="http://www.w3.org/2000/svg">
<g clip-path="url(#clip0)">
<path d="M21.7909 9.08314H19.4371V2.47478H20.5617V0.600098H11.4383V2.47478H12.563V9.08314H10.2091C8.75033 9.08314 7.56354 10.27 7.56354 11.7287V28.6213C7.56354 30.0802 8.75033 31.267 10.2091 31.267H11.3131V32.6H13.1878V31.267H18.8124V32.6H20.687V31.267H21.791C23.2498 31.267 24.4366 30.0801 24.4366 28.6213V11.7287C24.4365 10.27 23.2497 9.08314 21.7909 9.08314ZM13.1878 26.9761H11.3131V13.3741H13.1878V26.9761ZM16.9374 26.9761H15.0627V13.3741H16.9374V26.9761ZM17.5624 9.08314H14.4376V2.47478H17.5624V9.08314ZM20.687 26.9761H18.8123V13.3741H20.687V26.9761Z" fill="#B6B6B6"/>
</g>
<defs>
<clipPath id="clip0">
<rect width="32" height="32" fill="white" transform="translate(0 0.600098)"/>
</clipPath>
</defs>
</svg>
